<svg width="128" height="128" viewBox="0 0 128 128" fill="none" xmlns="http://www.w3.org/2000/svg">
<g clip-path="url(#clip0_1037_875)">
<g clip-path="url(#clip1_1037_875)">
<path fill-rule="evenodd" clip-rule="evenodd" d="M58.1314 60.2645C57.039 60.6543 55.9297 61.0525 54.8026 61.4598C51.5662 62.6293 48.9945 63.559 46.8499 64.355C46.4341 66.1618 46.046 67.93 45.6977 69.6271C45.6411 72.1039 45.3248 74.9018 44.7254 78.1291C44.5455 79.057 44.3005 79.9029 43.9999 80.6701C43.2937 89.3141 43.6759 93.3993 43.9006 95.8012C44.2143 99.1541 42.8292 101.173 42.3282 101.3C42.0325 101.375 40.3515 101.087 39.7602 100.394C39.1689 99.7005 36.963 96.1381 36.6947 91.3886C36.6048 89.7975 36.5284 88.3131 36.4929 86.7059C34.681 86.9015 32.7904 86.5801 31.0468 85.8245C27.443 84.2629 18.9894 74.4549 16.668 67.1336C14.4594 60.1684 12.2944 47.16 17.4497 43.5513C20.1616 41.653 24.4367 42.4598 26.5068 43.0215C29.9855 43.9652 33.591 46.4994 37.0357 50.0437C38.0606 51.0981 39.0072 52.1191 39.8687 53.1389C41.7795 41.9093 45.0674 26.3586 45.3342 25.1353C45.6227 23.8124 45.8475 22.8758 46.1691 22.2651C46.5618 21.5193 46.857 21.1536 47.2971 20.9832C47.9134 20.7448 49.5024 20.6599 50.5849 20.928C52.5418 21.4128 54.1504 23.2512 55.0311 24.6764C55.7124 25.7789 56.4475 27.7867 56.0391 29.7089C55.9194 30.2722 49.7996 52.4709 49.7996 52.4709C53.5613 51.3342 61.8984 48.9417 61.8984 48.9417C62.6462 46.4887 63.307 44.3125 63.8958 42.373C66.6155 33.4159 67.8022 29.5075 68.9587 26.6962C70.3657 23.2762 71.8032 20.6135 74.2072 19.4641C77.5906 17.8465 82.581 18.3098 83.9631 18.9565C84.4696 19.1935 85.6008 19.9148 84.4277 22.1609C82.9988 24.8967 78.8479 33.8174 78.2358 35.1763C74.7202 42.9799 70.9339 52.5315 70.9339 52.5315C71.5629 51.2871 72.2151 50.1106 72.8343 49.0725C74.9283 45.5617 78.1868 41.3917 82.1282 38.0294C92.2395 29.4038 100.852 33.0916 101.871 34.2681C103.072 35.6554 103.497 38.643 103.106 40.7755C102.931 41.7327 102.537 42.9363 101.935 44.3843C102.469 43.6763 102.972 43.0262 103.436 42.4458C106.829 38.2039 110.808 37.2731 111.816 37.1526C113.623 36.9365 119.344 37.5772 120.359 39.8651C120.885 41.0518 117.246 45.0795 113.751 48.9472C112.469 50.3661 111.206 51.7635 110.176 52.9912C106.336 57.5655 93.0556 73.3138 93.0556 73.3138C88.6778 78.5723 84.6246 83.4158 81.4342 87.128C73.0362 96.8996 70.6719 98.9953 68.2236 100.188C67.3254 100.626 66.286 100.874 65.9759 100.289C65.8689 100.088 65.789 99.8531 65.7339 99.5767C58.8487 107.474 56.4844 108.792 55.6622 109.25C55.6009 109.284 55.5482 109.314 55.5028 109.341C55.4667 109.362 55.4276 109.385 55.3858 109.41C54.4582 109.964 52.1627 111.334 50.4444 111.463C49.773 111.514 47.1321 111.082 46.2943 110.302C45.1616 109.246 44.5712 106.273 44.5505 104.845C44.502 101.492 45.5263 99.7731 46.3982 99.508C47.5714 99.1512 57.3227 95.2668 72.0634 77.7861C82.9656 65.0457 83.2387 63.5127 83.2387 63.5127C79.5704 66.0511 74.4094 67.9676 71.5082 67.3587C69.8189 67.0042 68.0793 65.1099 67.7241 63.0082C67.5464 61.9573 67.8069 60.3837 68.2714 58.9026C65.6356 65.2169 63.0417 71.3884 61.0855 75.8753C55.9362 87.6863 54.2841 90.394 52.305 92.246C51.2747 93.2102 50.3995 93.0793 50.1866 93.0041C48.71 92.4827 48.7227 89.6487 48.74 89.1092C48.7927 87.4692 49.3623 85.5421 50.1737 83.2443L56.4637 65.431C56.5982 65.0502 56.7601 64.6031 56.9299 64.1343C57.5862 62.3222 58.3612 60.1825 58.1314 60.2645ZM37.9537 64.9906C37.4395 62.7874 36.7129 61.1418 36.2078 60.3482C33.8623 56.6633 29.3368 54.1491 27.6332 53.6404C26.1792 53.2062 24.86 53.6492 24.2137 54.276C22.9641 55.4881 22.3106 59.6658 22.4755 62.957C22.65 66.4401 24.2745 71.3315 26.4689 74.5877C28.6634 77.8439 32.2948 80.5213 33.2262 80.8502L33.2318 80.8522C34.1224 81.1667 35.4486 81.635 36.5952 79.8371C36.6752 78.1225 36.7981 76.1737 36.9761 73.8894C37.2152 70.8214 37.5789 67.7296 37.9537 64.9906ZM89.3603 42.7949C90.2424 42.9775 90.9823 43.7638 91.1226 44.7433C91.3149 46.0855 90.1311 49.3337 88.1945 51.4755C82.9944 57.2269 78.6315 60.703 76.6174 61.2839C75.5512 61.5915 74.2877 61.4897 73.9042 61.2064C72.8928 60.4591 73.3669 58.5177 73.6468 57.8229C75.316 53.6796 81.1426 47.3582 83.4356 45.5836C85.7287 43.8089 87.5611 42.4224 89.3603 42.7949Z" fill="#25678C"/>
<path d="M77.9561 91.9321C77.9448 91.348 80.2632 88.8039 80.2632 88.8039C90.8149 78.7626 107.009 63.4113 108.087 62.5392C109.164 61.6671 109.858 61.1058 110.969 60.6444C112.081 60.1829 113.431 59.865 115.595 59.9795C117.89 60.101 124.409 61.0613 123.676 63.1372C123.366 64.0158 118.573 67.7379 115.534 69.9348C109.984 73.9457 91.9879 87.8779 91.9879 87.8779C85.0064 93.0074 82.9551 94.045 80.7402 94.5056C79.9882 94.662 78.8862 94.7223 78.5828 94.3103C78.1961 93.785 77.9679 92.5444 77.9561 91.9321Z" fill="#25678C"/>
<path fill-rule="evenodd" clip-rule="evenodd" d="M100.412 42.3448C103.806 38.1003 107.786 37.1684 108.794 37.0476C110.601 36.8312 116.323 37.4711 117.337 39.76C118.056 41.3828 110.991 48.317 107.151 52.8942C103.31 57.4714 90.0261 73.2296 90.0261 73.2296C85.6471 78.4915 81.5928 83.338 78.4016 87.0525C70.0013 96.8303 67.6365 98.9275 65.1879 100.121C64.2896 100.559 63.2501 100.807 62.94 100.223C62.6008 99.5829 62.5334 98.6112 62.6693 97.0214C62.8051 95.4315 64.0412 93.581 65.7967 90.8624C67.5521 88.1438 74.7327 79.0393 80.1768 71.2557C85.6209 63.4722 95.318 48.7161 100.412 42.3448ZM34.0068 49.9578C41.142 57.3024 44.4853 63.022 41.6921 78.0556C40.0911 86.3062 33.3595 88.0747 28.0113 85.7571C24.4076 84.1953 15.9552 74.384 13.6348 67.0595C11.4273 60.0913 9.26448 47.077 14.4207 43.4657C17.1331 41.566 21.4083 42.3724 23.4784 42.934C26.9572 43.8776 30.5625 46.4124 34.0068 49.9578ZM19.4434 62.8799C19.6173 66.3647 21.2411 71.2582 23.4351 74.5156C25.6291 77.773 29.2603 80.4511 30.1917 80.78C31.6931 81.3101 34.4415 82.2939 35.4724 72.0584C35.9065 66.3907 34.1396 61.7807 33.177 60.2675C30.832 56.5812 26.3067 54.0666 24.6031 53.5579C23.1491 53.1237 21.8297 53.5672 21.1833 54.1944C19.9333 55.4073 19.2791 59.5871 19.4434 62.8799ZM77.2302 88.7295C77.2302 88.7295 74.9112 91.2752 74.9224 91.8596C74.9341 92.4721 75.1621 93.7133 75.5488 94.2388C75.8521 94.651 76.9542 94.5904 77.7063 94.4339C79.9213 93.9726 81.973 92.9341 88.9557 87.801C88.9557 87.801 106.956 73.8589 112.506 69.8452C115.546 67.6466 120.34 63.9219 120.65 63.0428C121.384 60.9658 114.864 60.0061 112.569 59.885C110.405 59.7708 109.055 60.0891 107.943 60.551C106.831 61.0128 106.138 61.5745 105.06 62.4473C103.982 63.32 87.7842 78.6815 77.2302 88.7295Z" fill="#0DE5B2"/>
<path fill-rule="evenodd" clip-rule="evenodd" d="M51.7855 61.4479C52.912 61.0404 54.0206 60.6419 55.1123 60.2519C55.4014 60.1486 54.0988 63.5651 53.4445 65.418C50.2807 74.378 47.9658 80.9338 47.1544 83.2316C46.3431 85.5294 45.7734 87.4565 45.7203 89.0963C45.7028 89.6358 45.6895 92.4696 47.1648 92.9905C47.3776 93.0656 48.2521 93.1963 49.2819 92.232C51.2601 90.3796 52.9117 87.6717 58.0603 75.8605C60.0162 71.3735 62.6098 65.2019 65.2453 58.8875C64.7807 60.3686 64.5201 61.9422 64.6973 62.9929C65.0518 65.0943 66.7897 66.988 68.4776 67.342C71.3765 67.9502 76.5343 66.0325 80.2006 63.4934C80.2006 63.4934 79.9273 65.0263 69.0297 77.7684C54.2952 95.2512 44.55 99.1378 43.3775 99.4948C42.5062 99.7601 41.4822 101.479 41.5298 104.831C41.5501 106.26 42.1394 109.233 43.2709 110.288C44.1079 111.068 46.7469 111.499 47.4178 111.448C49.2124 111.312 51.6374 109.821 52.4731 109.324C53.3088 108.827 56.6336 107.511 70.1654 90.5553C79.403 78.9802 93.3082 55.3558 95.7511 50.7986C98.194 46.2415 99.6685 42.8857 100.06 40.7532C100.451 38.6207 100.027 35.6336 98.8266 34.2467C97.8086 33.0705 89.2036 29.3853 79.0974 38.0127C75.158 41.3757 71.9007 45.5461 69.8074 49.0571C69.1884 50.0953 68.5363 51.2719 67.9075 52.5163C67.9075 52.5163 71.6935 42.9646 75.2085 35.1608C75.8206 33.8019 79.9707 24.8809 81.3993 22.145C82.5721 19.8989 81.4419 19.1779 80.9358 18.941C79.5549 18.2947 74.5682 17.8327 71.1869 19.451C68.7843 20.601 67.3471 23.2638 65.9403 26.6838C64.5335 30.1038 63.0817 35.1475 58.8794 48.9291C58.8794 48.9291 50.5478 51.3235 46.7885 52.4611C46.7885 52.4611 52.9095 30.2628 53.0293 29.6995C53.4379 27.7774 52.7038 25.77 52.0232 24.6677C51.1436 23.2429 49.5366 21.405 47.5812 20.9208C46.4996 20.653 44.9117 20.7383 44.2958 20.9769C43.8559 21.1473 43.5609 21.5131 43.1683 22.2589C42.8467 22.8696 42.6219 23.8062 42.3332 25.1291C42.0445 26.4519 38.2215 44.5279 36.4274 55.7767C36.4274 55.7767 34.668 64.9307 33.9688 73.8809C33.2696 82.8311 33.4161 86.6297 33.6831 91.3787C33.95 96.1276 36.1534 99.6891 36.7441 100.382C37.3348 101.075 39.0145 101.363 39.31 101.288C39.8106 101.161 41.1953 99.1415 40.8827 95.789C40.6505 93.2989 40.2496 88.9997 41.0683 79.6861C41.4156 75.7364 42.4791 70.2471 43.8379 64.3449C45.9811 63.5484 48.5512 62.6181 51.7855 61.4479ZM88.0836 44.7237C87.9437 43.7443 87.2045 42.9583 86.3231 42.7759C84.5253 42.4039 82.6938 43.7908 80.402 45.5658C78.1101 47.3408 72.2861 53.6631 70.6171 57.8066C70.3373 58.5014 69.863 60.4427 70.8735 61.1896C71.2566 61.4728 72.5191 61.5743 73.5847 61.2665C75.5975 60.6851 79.9581 57.2083 85.156 51.456C87.0916 49.314 88.2754 46.0657 88.0836 44.7237Z" fill="#6EFFCB"/>
<path d="M5.77227 71.1953L38.2282 112.656L41.8643 113.422L76.5035 109.403L104.636 90.0738L92.9619 80.1222L84.1586 68.4483L69.9967 71.5103L62.3416 63.0897L49.9021 66.9173L29.999 66.1517L21.1956 70.7448L6.17788 70.3872C5.75567 70.3772 5.51193 70.8627 5.77227 71.1953Z" fill="#0E1F4D"/>
<path fill-rule="evenodd" clip-rule="evenodd" d="M62.3416 63.0896L69.9966 71.5102L62.9157 106.341H58.8968L62.3416 63.0896ZM49.9021 66.9171L51.8159 106.723L44.1608 108.254L29.999 66.1516L49.9021 66.9171ZM21.1956 70.7447L40.3333 109.594L38.2281 112.656L5.77226 71.1952C5.51193 70.8626 5.75566 70.377 6.17787 70.3871L21.1956 70.7447ZM92.9618 80.1221L84.1585 68.4481L68.2743 106.915L73.8242 108.446L92.9618 80.1221Z" fill="#716EFF"/>
</g>
</g>
<defs>
<clipPath id="clip0_1037_875">
<rect width="128" height="128" fill="white"/>
</clipPath>
<clipPath id="clip1_1037_875">
<rect width="119.467" height="95.7867" fill="white" transform="translate(4.26666 18.3467)"/>
</clipPath>
</defs>
</svg>
