<svg width="24" height="24" viewBox="0 0 24 24" fill="none" xmlns="http://www.w3.org/2000/svg">
<g clip-path="url(#clip0_1896_6945)">
<rect width="24" height="24" rx="12" fill="black" fill-opacity="0.2"/>
<path opacity="0.3" fill-rule="evenodd" clip-rule="evenodd" d="M9.76224 20.7196L12.2101 11.6091C12.3808 10.9738 11.9022 10.3496 11.2444 10.3496H8.56211C7.89236 10.3496 7.41193 9.70407 7.60421 9.06251L9.29752 3.4128C5.6474 4.56041 3 7.97104 3 12C3 16.198 5.87427 19.7248 9.76224 20.7196ZM8.98355 23.6177C3.81622 22.2799 0 17.5856 0 12C0 5.95525 4.46942 0.954394 10.2839 0.121785L10.3204 0L10.4249 0.10245C10.9403 0.0348677 11.4661 0 12 0C18.6274 0 24 5.37258 24 12C24 18.6274 18.6274 24 12 24C11.852 24 11.7047 23.9973 11.5581 23.992L10.5825 27.6315L7 31L8.98355 23.6177ZM12.362 20.9929L15.6626 8.67938C15.8328 8.04423 15.3542 7.42047 14.6967 7.42047H12.2267C11.5585 7.42047 11.0783 6.77778 11.2677 6.13702L12.1943 3.00206C17.0752 3.10544 21 7.09437 21 12C21 16.8493 17.1647 20.8029 12.362 20.9929Z" fill="black"/>
</g>
<defs>
<clipPath id="clip0_1896_6945">
<rect width="24" height="24" rx="12" fill="white"/>
</clipPath>
</defs>
</svg>
