<svg viewBox="0 0 16 16" fill="currentColor" xmlns="http://www.w3.org/2000/svg">
<path d="M9.7265 1.72671C9.47317 1.47337 9.13317 1.33337 8.77984 1.33337H3.99984C3.2665 1.33337 2.6665 1.93337 2.6665 2.66671V13.3334C2.6665 14.0667 3.25984 14.6667 3.99317 14.6667H11.9998C12.7332 14.6667 13.3332 14.0667 13.3332 13.3334V5.88671C13.3332 5.53337 13.1932 5.19337 12.9398 4.94671L9.7265 1.72671ZM9.99984 12H5.99984C5.63317 12 5.33317 11.7 5.33317 11.3334C5.33317 10.9667 5.63317 10.6667 5.99984 10.6667H9.99984C10.3665 10.6667 10.6665 10.9667 10.6665 11.3334C10.6665 11.7 10.3665 12 9.99984 12ZM9.99984 9.33337H5.99984C5.63317 9.33337 5.33317 9.03337 5.33317 8.66671C5.33317 8.30004 5.63317 8.00004 5.99984 8.00004H9.99984C10.3665 8.00004 10.6665 8.30004 10.6665 8.66671C10.6665 9.03337 10.3665 9.33337 9.99984 9.33337ZM8.6665 5.33337V2.33337L12.3332 6.00004H9.33317C8.9665 6.00004 8.6665 5.70004 8.6665 5.33337Z" />
</svg>
