<svg viewBox="0 0 16 16" fill="currentColor" xmlns="http://www.w3.org/2000/svg">
<path d="M8.00016 14.6667C7.07794 14.6667 6.21127 14.4917 5.40016 14.1417C4.58905 13.7917 3.8835 13.3167 3.2835 12.7167C2.6835 12.1167 2.2085 11.4112 1.8585 10.6C1.5085 9.78893 1.3335 8.92226 1.3335 8.00004C1.3335 7.07782 1.5085 6.21115 1.8585 5.40004C2.2085 4.58893 2.6835 3.88337 3.2835 3.28337C3.8835 2.68337 4.58905 2.20837 5.40016 1.85837C6.21127 1.50837 7.07794 1.33337 8.00016 1.33337C8.92238 1.33337 9.78905 1.50837 10.6002 1.85837C11.4113 2.20837 12.1168 2.68337 12.7168 3.28337C13.3168 3.88337 13.7918 4.58893 14.1418 5.40004C14.4918 6.21115 14.6668 7.07782 14.6668 8.00004C14.6668 8.92226 14.4918 9.78893 14.1418 10.6C13.7918 11.4112 13.3168 12.1167 12.7168 12.7167C12.1168 13.3167 11.4113 13.7917 10.6002 14.1417C9.78905 14.4917 8.92238 14.6667 8.00016 14.6667ZM8.00016 13.6667C9.57794 13.6667 10.9168 13.1167 12.0168 12.0167C13.1168 10.9167 13.6668 9.57782 13.6668 8.00004C13.6668 7.32226 13.5502 6.67226 13.3168 6.05004C13.0835 5.42782 12.7557 4.86115 12.3335 4.35004L4.35016 12.3334C4.85016 12.7667 5.41405 13.0973 6.04183 13.325C6.66961 13.5528 7.32238 13.6667 8.00016 13.6667ZM3.6835 11.65L11.6502 3.68337C11.1391 3.25004 10.5724 2.91671 9.95016 2.68337C9.32794 2.45004 8.67794 2.33337 8.00016 2.33337C6.42238 2.33337 5.0835 2.88337 3.9835 3.98337C2.8835 5.08337 2.3335 6.42226 2.3335 8.00004C2.3335 8.67782 2.45572 9.3306 2.70016 9.95837C2.94461 10.5862 3.27238 11.15 3.6835 11.65Z" />
</svg>
