<svg width="16" height="16" viewBox="0 0 16 16" fill="none" xmlns="http://www.w3.org/2000/svg">
<g clip-path="url(#clip0_610_6511)">
<path d="M12.6667 5.99984L13.5 4.1665L15.3333 3.33317L13.5 2.49984L12.6667 0.666504L11.8333 2.49984L10 3.33317L11.8333 4.1665L12.6667 5.99984Z" fill="white"/>
<path d="M12.6667 10L11.8333 11.8333L10 12.6667L11.8333 13.5L12.6667 15.3333L13.5 13.5L15.3333 12.6667L13.5 11.8333L12.6667 10Z" fill="white"/>
<path d="M7.66675 6.33317L6.00008 2.6665L4.33341 6.33317L0.666748 7.99984L4.33341 9.6665L6.00008 13.3332L7.66675 9.6665L11.3334 7.99984L7.66675 6.33317ZM6.66008 8.65984L6.00008 10.1132L5.34008 8.65984L3.88675 7.99984L5.34008 7.33984L6.00008 5.8865L6.66008 7.33984L8.11341 7.99984L6.66008 8.65984Z" fill="white"/>
</g>
<defs>
<clipPath id="clip0_610_6511">
<rect width="16" height="16" fill="white"/>
</clipPath>
</defs>
</svg>
