<svg width="16" height="16" viewBox="0 0 16 16" fill="none" xmlns="http://www.w3.org/2000/svg">
<g clip-path="url(#clip0_2140_635)">
<path d="M8.00016 1.33325C4.32016 1.33325 1.3335 4.31992 1.3335 7.99992C1.3335 11.6799 4.32016 14.6666 8.00016 14.6666C11.6802 14.6666 14.6668 11.6799 14.6668 7.99992C14.6668 4.31992 11.6802 1.33325 8.00016 1.33325ZM8.00016 11.3333C7.6335 11.3333 7.3335 11.0333 7.3335 10.6666V7.99992C7.3335 7.63325 7.6335 7.33325 8.00016 7.33325C8.36683 7.33325 8.66683 7.63325 8.66683 7.99992V10.6666C8.66683 11.0333 8.36683 11.3333 8.00016 11.3333ZM8.66683 5.99992H7.3335V4.66658H8.66683V5.99992Z" fill="#1A9FEA"/>
</g>
<defs>
<clipPath id="clip0_2140_635">
<rect width="16" height="16" fill="white"/>
</clipPath>
</defs>
</svg>
