<svg width="12" height="12" viewBox="0 0 12 12" fill="none" xmlns="http://www.w3.org/2000/svg">
<g clip-path="url(#clip0_3118_348)">
<path d="M6 1C3.24 1 1 3.24 1 6C1 8.76 3.24 11 6 11C8.76 11 11 8.76 11 6C11 3.24 8.76 1 6 1ZM4.645 8.145L2.85 6.35C2.655 6.155 2.655 5.84 2.85 5.645C3.045 5.45 3.36 5.45 3.555 5.645L5 7.085L8.44 3.645C8.635 3.45 8.95 3.45 9.145 3.645C9.34 3.84 9.34 4.155 9.145 4.35L5.35 8.145C5.16 8.34 4.84 8.34 4.645 8.145Z" fill="#6EFFCB"/>
</g>
<defs>
<clipPath id="clip0_3118_348">
<rect width="12" height="12" fill="white"/>
</clipPath>
</defs>
</svg>
