<svg width="12" height="12" viewBox="0 0 12 12" fill="none" xmlns="http://www.w3.org/2000/svg">
<path d="M10.0129 8.5007C8.63195 10.8925 5.57355 11.712 3.1817 10.3311C2.53034 9.95505 1.982 9.4463 1.56436 8.83985C1.42473 8.63705 1.51505 8.35705 1.74685 8.2741C3.63056 7.59985 4.63946 6.8186 5.2249 5.70105C5.84125 4.52454 6.0005 3.23581 5.56935 1.46931C5.50975 1.22504 5.70265 0.992459 5.95375 1.00593C6.73225 1.04769 7.4928 1.27131 8.18245 1.66951C10.5743 3.05044 11.3938 6.10885 10.0129 8.5007ZM5.88925 6.04905C5.2636 7.24335 4.23353 8.0986 2.48052 8.7985C2.78465 9.14645 3.14638 9.4447 3.5567 9.6816C5.5898 10.8554 8.18955 10.1588 9.36335 8.1257C10.5372 6.0926 9.8406 3.49285 7.80745 2.31903C7.36895 2.06585 6.89755 1.89584 6.4114 1.81126C6.73495 3.50326 6.52625 4.83311 5.88925 6.04905Z" fill="white"/>
</svg>
