<svg width="12" height="12" viewBox="0 0 12 12" fill="none" xmlns="http://www.w3.org/2000/svg">
<path d="M6 1C6.2071 1 6.375 1.1679 6.375 1.375V2.125C6.375 2.3321 6.2071 2.5 6 2.5C5.7929 2.5 5.625 2.3321 5.625 2.125V1.375C5.625 1.1679 5.7929 1 6 1ZM6 8.5C7.3807 8.5 8.5 7.3807 8.5 6C8.5 4.61929 7.3807 3.5 6 3.5C4.61929 3.5 3.5 4.61929 3.5 6C3.5 7.3807 4.61929 8.5 6 8.5ZM6 7.75C5.0335 7.75 4.25 6.9665 4.25 6C4.25 5.0335 5.0335 4.25 6 4.25C6.9665 4.25 7.75 5.0335 7.75 6C7.75 6.9665 6.9665 7.75 6 7.75ZM10.625 6.375C10.8321 6.375 11 6.2071 11 6C11 5.7929 10.8321 5.625 10.625 5.625H9.875C9.6679 5.625 9.5 5.7929 9.5 6C9.5 6.2071 9.6679 6.375 9.875 6.375H10.625ZM6 9.5C6.2071 9.5 6.375 9.6679 6.375 9.875V10.625C6.375 10.8321 6.2071 11 6 11C5.7929 11 5.625 10.8321 5.625 10.625V9.875C5.625 9.6679 5.7929 9.5 6 9.5ZM2.125 6.375C2.3321 6.375 2.5 6.2071 2.5 6C2.5 5.7929 2.3321 5.625 2.125 5.625H1.375C1.1679 5.625 1 5.7929 1 6C1 6.2071 1.1679 6.375 1.375 6.375H2.125ZM2.10983 2.11002C2.25628 1.96357 2.49372 1.96357 2.64017 2.11002L3.39017 2.86002C3.53661 3.00647 3.53661 3.24391 3.39017 3.39035C3.24372 3.5368 3.00628 3.5368 2.85983 3.39035L2.10983 2.64035C1.96339 2.49391 1.96339 2.25647 2.10983 2.11002ZM2.64017 9.89035C2.49372 10.0368 2.25628 10.0368 2.10983 9.89035C1.96339 9.7439 1.96339 9.50645 2.10983 9.36L2.85983 8.61C3.00628 8.46355 3.24372 8.46355 3.39017 8.61C3.53661 8.75645 3.53661 8.9939 3.39017 9.14035L2.64017 9.89035ZM9.89015 2.11002C9.7437 1.96357 9.5063 1.96357 9.35985 2.11002L8.60985 2.86002C8.4634 3.00647 8.4634 3.24391 8.60985 3.39035C8.7563 3.5368 8.9937 3.5368 9.14015 3.39035L9.89015 2.64035C10.0366 2.49391 10.0366 2.25647 9.89015 2.11002ZM9.35985 9.89035C9.5063 10.0368 9.7437 10.0368 9.89015 9.89035C10.0366 9.7439 10.0366 9.50645 9.89015 9.36L9.14015 8.61C8.9937 8.46355 8.7563 8.46355 8.60985 8.61C8.4634 8.75645 8.4634 8.9939 8.60985 9.14035L9.35985 9.89035Z" fill="white"/>
</svg>
