<svg width="12" height="12" viewBox="0 0 12 12" fill="none" xmlns="http://www.w3.org/2000/svg">
<path d="M10.5 3.25C9.67 3.25 9 3.92 9 4.75C9 4.785 9 4.82 9.005 4.855L7.99 5.195C7.67 4.59 7.08 4.15 6.38 4.035V2.955C7.02 2.785 7.5 2.2 7.5 1.5C7.5 0.67 6.83 0 6 0C5.17 0 4.5 0.67 4.5 1.5C4.5 2.2 4.98 2.785 5.625 2.955V4.035C4.925 4.15 4.335 4.59 4.015 5.195L2.995 4.855C3 4.82 3 4.785 3 4.75C3 3.92 2.33 3.25 1.5 3.25C0.67 3.25 0 3.92 0 4.75C0 5.58 0.67 6.25 1.5 6.25C2.03 6.25 2.49 5.975 2.76 5.565L3.775 5.905C3.675 6.55 3.86 7.235 4.32 7.75L3.615 8.635C3.425 8.545 3.22 8.5 3 8.5C2.17 8.5 1.5 9.17 1.5 10C1.5 10.83 2.17 11.5 3 11.5C3.83 11.5 4.5 10.83 4.5 10C4.5 9.66 4.39 9.35 4.2 9.1L4.905 8.215C5.585 8.595 6.415 8.59 7.09 8.215L7.795 9.1C7.61 9.35 7.5 9.66 7.5 10C7.5 10.83 8.17 11.5 9 11.5C9.83 11.5 10.5 10.83 10.5 10C10.5 9.17 9.83 8.5 9 8.5C8.78 8.5 8.575 8.545 8.385 8.63L7.68 7.745C8.145 7.225 8.325 6.545 8.225 5.9L9.24 5.56C9.505 5.97 9.97 6.245 10.5 6.245C11.33 6.245 12 5.575 12 4.745C12 3.915 11.33 3.25 10.5 3.25ZM1.5 5.25C1.225 5.25 1 5.025 1 4.75C1 4.475 1.225 4.25 1.5 4.25C1.775 4.25 2 4.475 2 4.75C2 5.025 1.775 5.25 1.5 5.25ZM3 10.5C2.725 10.5 2.5 10.275 2.5 10C2.5 9.725 2.725 9.5 3 9.5C3.275 9.5 3.5 9.725 3.5 10C3.5 10.275 3.275 10.5 3 10.5ZM5.5 1.5C5.5 1.225 5.725 1 6 1C6.275 1 6.5 1.225 6.5 1.5C6.5 1.775 6.275 2 6 2C5.725 2 5.5 1.775 5.5 1.5ZM6 7.5C5.31 7.5 4.75 6.94 4.75 6.25C4.75 5.56 5.31 5 6 5C6.69 5 7.25 5.56 7.25 6.25C7.25 6.94 6.69 7.5 6 7.5ZM9 9.5C9.275 9.5 9.5 9.725 9.5 10C9.5 10.275 9.275 10.5 9 10.5C8.725 10.5 8.5 10.275 8.5 10C8.5 9.725 8.725 9.5 9 9.5ZM10.5 5.25C10.225 5.25 10 5.025 10 4.75C10 4.475 10.225 4.25 10.5 4.25C10.775 4.25 11 4.475 11 4.75C11 5.025 10.775 5.25 10.5 5.25Z" fill="white"/>
</svg>
