<svg width="16" height="16" viewBox="0 0 16 16" fill="none" xmlns="http://www.w3.org/2000/svg">
<path d="M13.1051 8C13.5993 8 14.0068 8.40287 13.9334 8.89163C13.7674 9.99599 13.2954 11.0385 12.5624 11.8967C11.6346 12.983 10.3496 13.7026 8.93861 13.9261C7.52758 14.1496 6.08311 13.8623 4.86501 13.1158C3.64691 12.3694 2.73513 11.2128 2.29366 9.8541C1.85219 8.49541 1.91001 7.02377 2.45672 5.7039C3.00343 4.38403 4.00315 3.30254 5.27606 2.65396C6.54897 2.00538 8.01153 1.83228 9.40067 2.16578C10.4981 2.42924 11.4927 2.9952 12.2761 3.7911C12.6228 4.14334 12.53 4.70879 12.1301 4.9993C11.7303 5.28981 11.1757 5.19199 10.8074 4.86243C10.2912 4.40057 9.66532 4.06999 8.98285 3.90615C8.00809 3.67213 6.98181 3.7936 6.08862 4.2487C5.19542 4.70381 4.49392 5.46268 4.1103 6.38883C3.72668 7.31498 3.6861 8.34762 3.99588 9.30102C4.30566 10.2544 4.94545 11.066 5.80019 11.5898C6.65492 12.1136 7.6685 12.3152 8.65862 12.1583C9.64873 12.0015 10.5504 11.4966 11.2014 10.7343C11.6573 10.2006 11.9693 9.56528 12.1154 8.88821C12.2197 8.40509 12.6108 8 13.1051 8Z" fill="url(#paint0_angular_393_2448)"/>
<defs>
<radialGradient id="paint0_angular_393_2448" cx="0" cy="0" r="1" gradientUnits="userSpaceOnUse" gradientTransform="translate(8 8) rotate(90) scale(6)">
<stop stop-color="#F4F4F4"/>
<stop offset="0.395833" stop-color="white"/>
<stop offset="0.674936" stop-color="white"/>
<stop offset="0.770833" stop-color="#FEFEFE" stop-opacity="0.2"/>
</radialGradient>
</defs>
</svg>
