<svg width="16" height="16" viewBox="0 0 16 16" fill="none" xmlns="http://www.w3.org/2000/svg">
<path d="M10.3333 9.33332H9.8066L9.61993 9.15332C10.4199 8.21999 10.8333 6.94666 10.6066 5.59332C10.2933 3.73999 8.7466 2.25999 6.87993 2.03332C4.05993 1.68666 1.6866 4.05999 2.03326 6.87999C2.25993 8.74666 3.73993 10.2933 5.59326 10.6067C6.9466 10.8333 8.21993 10.42 9.15326 9.61999L9.33326 9.80666V10.3333L12.1666 13.1667C12.4399 13.44 12.8866 13.44 13.1599 13.1667C13.4333 12.8933 13.4333 12.4467 13.1599 12.1733L10.3333 9.33332ZM6.33326 9.33332C4.67326 9.33332 3.33326 7.99332 3.33326 6.33332C3.33326 4.67332 4.67326 3.33332 6.33326 3.33332C7.99326 3.33332 9.33326 4.67332 9.33326 6.33332C9.33326 7.99332 7.99326 9.33332 6.33326 9.33332Z" fill="white"/>
</svg>
