<svg width="12" height="12" viewBox="0 0 12 12" fill="none" xmlns="http://www.w3.org/2000/svg">
<path d="M10.0643 6.55602C10.0864 6.37953 10.1029 6.20303 10.1029 6.01551C10.1029 5.82798 10.0864 5.65148 10.0643 5.47499L11.2281 4.56493C11.3329 4.48219 11.3605 4.33328 11.2943 4.21193L10.1912 2.30357C10.1416 2.21532 10.0478 2.16568 9.94851 2.16568C9.91542 2.16568 9.88232 2.1712 9.85475 2.18223L8.48139 2.73378C8.19458 2.51316 7.88571 2.33115 7.54927 2.19326L7.33968 0.731651C7.32313 0.599279 7.2073 0.5 7.06942 0.5H4.86321C4.72533 0.5 4.6095 0.599279 4.59295 0.731651L4.38337 2.19326C4.04692 2.33115 3.73805 2.51867 3.45125 2.73378L2.07788 2.18223C2.04479 2.1712 2.0117 2.16568 1.97861 2.16568C1.88484 2.16568 1.79108 2.21532 1.74144 2.30357L0.638338 4.21193C0.566636 4.33328 0.599729 4.48219 0.704524 4.56493L1.8683 5.47499C1.84623 5.65148 1.82969 5.83349 1.82969 6.01551C1.82969 6.19752 1.84623 6.37953 1.8683 6.55602L0.704524 7.46608C0.599729 7.54882 0.572151 7.69773 0.638338 7.81908L1.74144 9.72744C1.79108 9.81569 1.88484 9.86533 1.98412 9.86533C2.01721 9.86533 2.05031 9.85981 2.07788 9.84878L3.45125 9.29723C3.73805 9.51785 4.04692 9.69986 4.38337 9.83775L4.59295 11.2994C4.6095 11.4317 4.72533 11.531 4.86321 11.531H7.06942C7.2073 11.531 7.32313 11.4317 7.33968 11.2994L7.54927 9.83775C7.88571 9.69986 8.19458 9.51234 8.48139 9.29723L9.85475 9.84878C9.88784 9.85981 9.92093 9.86533 9.95403 9.86533C10.0478 9.86533 10.1416 9.81569 10.1912 9.72744L11.2943 7.81908C11.3605 7.69773 11.3329 7.54882 11.2281 7.46608L10.0643 6.55602V6.55602ZM8.97227 5.61287C8.99433 5.78385 8.99984 5.89968 8.99984 6.01551C8.99984 6.13133 8.98881 6.25267 8.97227 6.41814L8.89505 7.04139L9.38593 7.42747L9.9816 7.89078L9.59552 8.55815L8.89505 8.27686L8.32144 8.04521L7.82504 8.42027C7.58787 8.59676 7.36174 8.72913 7.1356 8.8229L6.55096 9.06006L6.46271 9.68332L6.3524 10.4279H5.58023L5.47544 9.68332L5.38719 9.06006L4.80254 8.8229C4.56538 8.72362 4.34476 8.59676 4.12414 8.4313L3.62223 8.04521L3.03758 8.28238L2.33711 8.56367L1.95103 7.89629L2.5467 7.43299L3.03758 7.0469L2.96037 6.42365C2.94382 6.25267 2.93279 6.12582 2.93279 6.01551C2.93279 5.90519 2.94382 5.77834 2.96037 5.61287L3.03758 4.98962L2.5467 4.60354L1.95103 4.14023L2.33711 3.47286L3.03758 3.75415L3.61119 3.9858L4.10759 3.61074C4.34476 3.43425 4.57089 3.30188 4.79703 3.20811L5.38167 2.97095L5.46992 2.34769L5.58023 1.6031H6.34689L6.45168 2.34769L6.53993 2.97095L7.12457 3.20811C7.36174 3.30739 7.58236 3.43425 7.80298 3.59971L8.30489 3.9858L8.88953 3.74863L9.59 3.46734L9.97609 4.13472L9.38593 4.60354L8.89505 4.98962L8.97227 5.61287ZM5.96632 3.8093C4.74739 3.8093 3.76011 4.79658 3.76011 6.01551C3.76011 7.23443 4.74739 8.22171 5.96632 8.22171C7.18524 8.22171 8.17252 7.23443 8.17252 6.01551C8.17252 4.79658 7.18524 3.8093 5.96632 3.8093ZM5.96632 7.11861C5.35961 7.11861 4.86321 6.62221 4.86321 6.01551C4.86321 5.4088 5.35961 4.9124 5.96632 4.9124C6.57302 4.9124 7.06942 5.4088 7.06942 6.01551C7.06942 6.62221 6.57302 7.11861 5.96632 7.11861Z" fill="white"/>
</svg>
